<?xml version="1.0" encoding="UTF-8"?>
<svg width="1024" height="1024" viewBox="0 0 1024 1024" fill="none" xmlns="http://www.w3.org/2000/svg">
  <g fill="#fff">
    <rect x="300" y="300" width="48" height="48" rx="12"/>
    <rect x="364" y="300" width="48" height="48" rx="12"/>
    <rect x="428" y="300" width="48" height="48" rx="12"/>
    <rect x="492" y="300" width="48" height="48" rx="12"/>
    <rect x="556" y="300" width="48" height="48" rx="12"/>
    <rect x="620" y="300" width="48" height="48" rx="12"/>
    <rect x="684" y="300" width="48" height="48" rx="12"/>
    <rect x="300" y="364" width="48" height="48" rx="12"/>
    <rect x="364" y="364" width="48" height="48" rx="12"/>
    <rect x="428" y="364" width="48" height="48" rx="12"/>
    <rect x="492" y="364" width="48" height="48" rx="12"/>
    <rect x="556" y="364" width="48" height="48" rx="12"/>
    <rect x="620" y="364" width="48" height="48" rx="12"/>
    <rect x="684" y="364" width="48" height="48" rx="12"/>
    <rect x="300" y="428" width="48" height="48" rx="12"/>
    <rect x="364" y="428" width="48" height="48" rx="12"/>
    <rect x="428" y="428" width="48" height="48" rx="12"/>
    <rect x="492" y="428" width="48" height="48" rx="12"/>
    <rect x="556" y="428" width="48" height="48" rx="12"/>
    <rect x="620" y="428" width="48" height="48" rx="12"/>
    <rect x="684" y="428" width="48" height="48" rx="12"/>
    <rect x="300" y="492" width="48" height="48" rx="12"/>
    <rect x="364" y="492" width="48" height="48" rx="12"/>
    <rect x="428" y="492" width="48" height="48" rx="12"/>
    <rect x="492" y="492" width="48" height="48" rx="12"/>
    <rect x="556" y="492" width="48" height="48" rx="12"/>
    <rect x="620" y="492" width="48" height="48" rx="12"/>
    <rect x="684" y="492" width="48" height="48" rx="12"/>
    <rect x="300" y="556" width="48" height="48" rx="12"/>
    <rect x="364" y="556" width="48" height="48" rx="12"/>
    <rect x="428" y="556" width="48" height="48" rx="12"/>
    <rect x="492" y="556" width="48" height="48" rx="12"/>
    <rect x="556" y="556" width="48" height="48" rx="12"/>
    <rect x="620" y="556" width="48" height="48" rx="12"/>
    <rect x="684" y="556" width="48" height="48" rx="12"/>
    <rect x="300" y="620" width="48" height="48" rx="12"/>
    <rect x="364" y="620" width="48" height="48" rx="12"/>
    <rect x="428" y="620" width="48" height="48" rx="12"/>
    <rect x="492" y="620" width="48" height="48" rx="12"/>
    <rect x="556" y="620" width="48" height="48" rx="12"/>
    <rect x="620" y="620" width="48" height="48" rx="12"/>
    <rect x="684" y="620" width="48" height="48" rx="12"/>
    <rect x="300" y="684" width="48" height="48" rx="12"/>
    <rect x="364" y="684" width="48" height="48" rx="12"/>
    <rect x="428" y="684" width="48" height="48" rx="12"/>
    <rect x="492" y="684" width="48" height="48" rx="12"/>
    <rect x="556" y="684" width="48" height="48" rx="12"/>
    <rect x="620" y="684" width="48" height="48" rx="12"/>
    <rect x="684" y="684" width="48" height="48" rx="12"/>
  </g>
</svg>
