<?xml version="1.0" encoding="UTF-8"?>
<svg width="1024" height="1024" viewBox="0 0 1024 1024" fill="none" xmlns="http://www.w3.org/2000/svg">
  <g transform="translate(512,512) rotate(-90) translate(-512,-512)">
  <g fill="#fff">
    <rect x="300" y="300" width="48" height="48" rx="12"/>
    <rect x="364" y="300" width="48" height="48" rx="12"/>
    <rect x="364" y="364" width="48" height="48" rx="12"/>
    <rect x="428" y="300" width="48" height="48" rx="12"/>
    <rect x="428" y="364" width="48" height="48" rx="12"/>
    <rect x="428" y="428" width="48" height="48" rx="12"/>
    <rect x="492" y="300" width="48" height="48" rx="12"/>
    <rect x="492" y="364" width="48" height="48" rx="12"/>
    <rect x="492" y="428" width="48" height="48" rx="12"/>
    <rect x="492" y="492" width="48" height="48" rx="12"/>
    <rect x="556" y="300" width="48" height="48" rx="12"/>
    <rect x="556" y="364" width="48" height="48" rx="12"/>
    <rect x="556" y="428" width="48" height="48" rx="12"/>
    <rect x="556" y="492" width="48" height="48" rx="12"/>
    <rect x="556" y="556" width="48" height="48" rx="12"/>
  </g>
  </g>
</svg>
